<svg width="355" height="270" fill="none" xmlns="http://www.w3.org/2000/svg">
  <path d="M3 268L153.123 3l79.707 125.223 83.64-52.458L353 268H3z" fill="#fff"/>
  <path d="M3 268L153.123 3M3 268h350L316.47 75.765M3 268l100.797-27.075 38.603-15.569 23.948-13.537M153.123 3l79.707 125.223M153.123 3l8.221 75.811 28.952 49.412v70.058M316.47 75.765l-83.64 52.458m83.64-52.458l-29.309 49.074-17.157 51.105-67.555 36.552-36.101-.677m0 0l23.948-13.538m42.534-70.058l-14.297 37.568-28.237 32.49" stroke="#000" stroke-width="3"/>
</svg>
